<svg width="86" height="86" viewBox="0 0 86 86" fill="none" xmlns="http://www.w3.org/2000/svg">
<path d="M42.9518 67.4652C27.8358 67.4652 15.5366 55.167 15.5366 40.05C15.5366 38.4339 16.8469 37.1246 18.462 37.1246C20.0781 37.1246 21.3874 38.4349 21.3874 40.05C21.3884 51.9405 31.0614 61.6144 42.9518 61.6144C54.8413 61.6144 64.5153 51.9405 64.5153 40.051C64.5153 38.4349 65.8246 37.1256 67.4407 37.1256C69.0568 37.1256 70.3661 38.4358 70.3661 40.051C70.367 55.167 58.0679 67.4652 42.9518 67.4652Z" fill="white"/>
<path d="M42.9518 57.8083C33.2429 57.8083 25.2993 49.8646 25.2993 40.1557V18.125C25.2993 8.41616 33.2429 0.472528 42.9518 0.472528C52.6607 0.472528 60.6043 8.41616 60.6043 18.125V40.1548C60.6043 49.8637 52.6607 57.8083 42.9518 57.8083Z" fill="white"/>
<path d="M42.9518 84.6882C41.3357 84.6882 40.0264 83.3789 40.0264 81.7628V65.2817C40.0264 63.6656 41.3367 62.3563 42.9518 62.3563C44.5679 62.3563 45.8772 63.6656 45.8772 65.2817V81.7628C45.8772 83.3789 44.5679 84.6882 42.9518 84.6882Z" fill="white"/>
<path d="M52.8174 85.4311H33.0862C31.4701 85.4311 30.1608 84.1218 30.1608 82.5057C30.1608 80.8896 31.4711 79.5803 33.0862 79.5803H52.8165C54.4326 79.5803 55.7419 80.8896 55.7419 82.5057C55.7419 84.1218 54.4335 85.4311 52.8174 85.4311Z" fill="white"/>
</svg>